<svg xmlns="http://www.w3.org/2000/svg" xmlns:v="https://svgstorm.com"
viewBox = "0 0 759 1037"
width="759"
height="1037">
<g fill="None" fill-opacity="0.0" stroke="#F8F9FB" stroke-opacity="0.00" stroke-width="0.3"><path d="
M 0.00 1037.00 
L 759.00 1037.00
L 759.00 0.00
L 0.00 0.00
L 0.00 1037.00
M 482.00 719.00 
C 505.44 550.19 666.29 422.35 639.00 241.00
C 647.72 260.91 650.77 280.68 653.00 303.00 C 655.23 325.32 653.73 353.23 651.00 375.00 C 648.28 396.78 644.89 418.67 639.01 439.01 C 633.13 459.35 627.85 477.18 621.07 497.07 C 614.30 516.96 608.69 534.10 602.22 554.22 C 595.75 574.35 591.31 594.52 586.67 615.67 C 582.03 636.82 580.10 661.98 579.67 684.67 C 579.24 707.36 580.54 731.48 585.99 753.01 C 591.45 774.54 598.69 787.76 605.98 809.03 C 613.26 830.29 642.10 817.83 654.75 834.25 C 667.41 850.66 659.55 878.85 635.98 879.98 C 612.40 881.11 584.45 879.16 560.33 880.33 C 536.21 881.50 510.47 881.68 486.00 882.00 C 461.53 882.32 435.17 882.18 411.00 883.00 C 386.83 883.82 363.75 883.96 339.00 885.00 C 314.25 886.04 287.49 883.53 263.00 886.00
C 299.52 888.57 338.85 889.55 377.00 890.00 C 415.15 890.45 456.99 892.71 495.00 892.00 C 533.01 891.29 578.51 893.41 615.00 892.00 C 651.49 890.59 677.26 901.55 699.92 927.08 C 722.58 952.61 731.52 976.55 740.00 1008.00
C 497.92 1009.67 254.05 1009.66 12.00 1008.00
C 26.60 955.25 56.04 895.03 113.00 877.00
C 92.20 860.01 101.30 822.38 131.22 823.22 C 161.14 824.06 192.15 823.21 223.00 822.00 C 253.85 820.79 287.90 823.53 319.00 822.00 C 350.10 820.47 383.33 821.90 414.00 820.00
C 400.08 818.15 385.30 819.31 371.00 819.00 C 356.70 818.69 342.94 818.02 328.78 817.22 C 314.62 816.42 300.20 816.73 286.00 816.00 C 271.80 815.27 257.55 814.68 243.00 815.00 C 228.45 815.32 215.78 814.09 201.00 815.00 C 186.22 815.91 172.73 813.85 158.00 814.00 C 143.27 814.15 145.65 797.42 143.00 785.00 C 140.35 772.58 139.49 758.29 139.00 745.00 C 138.51 731.71 139.79 715.87 141.00 703.00 C 142.21 690.12 143.89 676.27 146.00 664.00 C 148.10 651.72 151.92 640.45 154.93 628.93 C 157.93 617.40 162.19 605.99 166.31 595.31 C 170.42 584.62 175.32 575.17 180.31 565.31 C 185.29 555.44 191.59 547.33 197.25 538.25 C 202.92 529.18 209.85 521.79 216.75 513.75 C 223.65 505.71 230.58 498.69 238.25 491.25 C 245.92 483.81 253.68 477.31 262.25 471.25 C 270.81 465.19 279.94 459.52 288.75 453.75 C 297.55 447.97 307.05 442.75 315.70 436.70 C 324.35 430.65 332.91 424.75 341.23 418.23 C 349.55 411.71 355.93 404.24 363.75 396.75 C 371.57 389.26 377.45 381.17 382.92 371.92 C 388.40 362.68 394.11 351.49 397.00 341.00
C 390.47 349.76 385.86 358.30 377.25 366.25 C 368.63 374.20 362.06 380.15 350.92 384.92 C 339.79 389.69 325.20 393.00 312.00 392.00 C 298.80 391.00 283.64 391.07 271.00 388.00 C 258.36 384.93 245.61 383.48 233.33 379.67 C 221.05 375.86 210.91 374.48 198.98 369.02 C 187.04 363.57 180.71 374.40 170.92 380.92 C 161.12 387.43 152.00 392.52 140.78 395.78 C 129.56 399.04 110.71 399.14 100.32 394.68 C 89.93 390.22 80.17 384.89 72.77 377.23 C 65.37 369.57 51.52 362.00 57.92 351.92 C 64.33 341.85 66.39 329.82 69.33 318.33 C 72.27 306.84 67.94 285.48 81.01 284.01 C 94.07 282.54 103.01 276.36 114.23 272.23 C 125.45 268.10 134.93 263.45 145.08 258.08 C 155.22 252.70 164.62 247.18 173.75 240.75 C 182.88 234.31 190.81 228.11 199.70 221.70 C 208.59 215.28 215.79 207.54 223.75 199.75 C 231.72 191.96 238.05 185.06 246.25 177.25 C 254.45 169.44 260.99 161.04 266.32 151.32 C 271.66 141.61 279.55 135.93 287.70 127.70 C 295.85 119.46 309.82 116.96 320.67 114.67 C 331.52 112.38 348.11 111.09 357.68 106.68 C 367.24 102.26 385.92 104.14 388.92 91.92 C 391.92 79.71 377.85 69.19 380.00 56.00 C 382.16 42.81 377.42 25.55 383.00 13.00
C 390.30 18.49 397.63 25.05 403.75 32.25 C 409.87 39.45 415.41 46.54 422.75 53.25 C 430.09 59.96 435.93 67.55 444.70 72.30 C 453.47 77.06 464.16 80.15 473.68 83.32 C 483.20 86.49 492.79 91.21 502.08 94.92 C 511.37 98.64 520.33 104.09 528.70 109.30 C 537.06 114.52 544.63 119.59 552.23 125.77 C 559.83 131.95 565.66 138.15 572.75 145.25 C 579.84 152.35 584.84 160.09 590.77 168.23 C 596.70 176.37 600.94 184.15 605.31 193.70 C 609.67 203.24 613.69 211.82 616.33 222.67 C 618.96 233.53 620.88 246.17 621.98 258.02 C 623.07 269.88 621.31 284.58 620.01 296.01 C 618.70 307.44 616.87 319.20 614.01 330.01 C 611.15 340.82 608.38 351.83 605.22 362.22 C 602.07 372.62 598.29 382.14 595.03 392.03 C 591.76 401.91 587.02 410.61 583.23 420.23 C 579.44 429.85 575.08 439.41 570.69 448.70 C 566.31 457.98 562.45 466.93 558.08 476.08 C 553.70 485.22 548.98 493.34 544.23 502.23 C 539.48 511.12 534.66 520.06 530.08 529.08 C 525.50 538.10 520.33 545.81 516.23 555.23 C 512.13 564.65 508.02 573.37 504.22 583.22 C 500.43 593.08 497.19 603.68 494.08 614.08 C 490.97 624.47 488.56 635.27 486.22 646.22 C 483.88 657.18 482.87 670.52 482.00 682.00 C 481.13 693.48 477.66 709.46 482.00 719.00 Z"/>
</g>
<g fill="None" fill-opacity="0.0" stroke="#F8F9FB" stroke-opacity="1.00" stroke-width="0.3"><path d="
M 482.00 719.00 
C 477.66 709.46 481.13 693.48 482.00 682.00 C 482.87 670.52 483.88 657.18 486.22 646.22 C 488.56 635.27 490.97 624.47 494.08 614.08 C 497.19 603.68 500.43 593.08 504.22 583.22 C 508.02 573.37 512.13 564.65 516.23 555.23 C 520.33 545.81 525.50 538.10 530.08 529.08 C 534.66 520.06 539.48 511.12 544.23 502.23 C 548.98 493.34 553.70 485.22 558.08 476.08 C 562.45 466.93 566.31 457.98 570.69 448.70 C 575.08 439.41 579.44 429.85 583.23 420.23 C 587.02 410.61 591.76 401.91 595.03 392.03 C 598.29 382.14 602.07 372.62 605.22 362.22 C 608.38 351.83 611.15 340.82 614.01 330.01 C 616.87 319.20 618.70 307.44 620.01 296.01 C 621.31 284.58 623.07 269.88 621.98 258.02 C 620.88 246.17 618.96 233.53 616.33 222.67 C 613.69 211.82 609.67 203.24 605.31 193.70 C 600.94 184.15 596.70 176.37 590.77 168.23 C 584.84 160.09 579.84 152.35 572.75 145.25 C 565.66 138.15 559.83 131.95 552.23 125.77 C 544.63 119.59 537.06 114.52 528.70 109.30 C 520.33 104.09 511.37 98.64 502.08 94.92 C 492.79 91.21 483.20 86.49 473.68 83.32 C 464.16 80.15 453.47 77.06 444.70 72.30 C 435.93 67.55 430.09 59.96 422.75 53.25 C 415.41 46.54 409.87 39.45 403.75 32.25 C 397.63 25.05 390.30 18.49 383.00 13.00
C 377.42 25.55 382.16 42.81 380.00 56.00 C 377.85 69.19 391.92 79.71 388.92 91.92 C 385.92 104.14 367.24 102.26 357.68 106.68 C 348.11 111.09 331.52 112.38 320.67 114.67 C 309.82 116.96 295.85 119.46 287.70 127.70 C 279.55 135.93 271.66 141.61 266.32 151.32 C 260.99 161.04 254.45 169.44 246.25 177.25 C 238.05 185.06 231.72 191.96 223.75 199.75 C 215.79 207.54 208.59 215.28 199.70 221.70 C 190.81 228.11 182.88 234.31 173.75 240.75 C 164.62 247.18 155.22 252.70 145.08 258.08 C 134.93 263.45 125.45 268.10 114.23 272.23 C 103.01 276.36 94.07 282.54 81.01 284.01 C 67.94 285.48 72.27 306.84 69.33 318.33 C 66.39 329.82 64.33 341.85 57.92 351.92 C 51.52 362.00 65.37 369.57 72.77 377.23 C 80.17 384.89 89.93 390.22 100.32 394.68 C 110.71 399.14 129.56 399.04 140.78 395.78 C 152.00 392.52 161.12 387.43 170.92 380.92 C 180.71 374.40 187.04 363.57 198.98 369.02 C 210.91 374.48 221.05 375.86 233.33 379.67 C 245.61 383.48 258.36 384.93 271.00 388.00 C 283.64 391.07 298.80 391.00 312.00 392.00 C 325.20 393.00 339.79 389.69 350.92 384.92 C 362.06 380.15 368.63 374.20 377.25 366.25 C 385.86 358.30 390.47 349.76 397.00 341.00
C 394.11 351.49 388.40 362.68 382.92 371.92 C 377.45 381.17 371.57 389.26 363.75 396.75 C 355.93 404.24 349.55 411.71 341.23 418.23 C 332.91 424.75 324.35 430.65 315.70 436.70 C 307.05 442.75 297.55 447.97 288.75 453.75 C 279.94 459.52 270.81 465.19 262.25 471.25 C 253.68 477.31 245.92 483.81 238.25 491.25 C 230.58 498.69 223.65 505.71 216.75 513.75 C 209.85 521.79 202.92 529.18 197.25 538.25 C 191.59 547.33 185.29 555.44 180.31 565.31 C 175.32 575.17 170.42 584.62 166.31 595.31 C 162.19 605.99 157.93 617.40 154.93 628.93 C 151.92 640.45 148.10 651.72 146.00 664.00 C 143.89 676.27 142.21 690.12 141.00 703.00 C 139.79 715.87 138.51 731.71 139.00 745.00 C 139.49 758.29 140.35 772.58 143.00 785.00 C 145.65 797.42 143.27 814.15 158.00 814.00 C 172.73 813.85 186.22 815.91 201.00 815.00 C 215.78 814.09 228.45 815.32 243.00 815.00 C 257.55 814.68 271.80 815.27 286.00 816.00 C 300.20 816.73 314.62 816.42 328.78 817.22 C 342.94 818.02 356.70 818.69 371.00 819.00 C 385.30 819.31 400.08 818.15 414.00 820.00
C 383.33 821.90 350.10 820.47 319.00 822.00 C 287.90 823.53 253.85 820.79 223.00 822.00 C 192.15 823.21 161.14 824.06 131.22 823.22 C 101.30 822.38 92.20 860.01 113.00 877.00
C 56.04 895.03 26.60 955.25 12.00 1008.00
C 254.05 1009.66 497.92 1009.67 740.00 1008.00
C 731.52 976.55 722.58 952.61 699.92 927.08 C 677.26 901.55 651.49 890.59 615.00 892.00 C 578.51 893.41 533.01 891.29 495.00 892.00 C 456.99 892.71 415.15 890.45 377.00 890.00 C 338.85 889.55 299.52 888.57 263.00 886.00
C 287.49 883.53 314.25 886.04 339.00 885.00 C 363.75 883.96 386.83 883.82 411.00 883.00 C 435.17 882.18 461.53 882.32 486.00 882.00 C 510.47 881.68 536.21 881.50 560.33 880.33 C 584.45 879.16 612.40 881.11 635.98 879.98 C 659.55 878.85 667.41 850.66 654.75 834.25 C 642.10 817.83 613.26 830.29 605.98 809.03 C 598.69 787.76 591.45 774.54 585.99 753.01 C 580.54 731.48 579.24 707.36 579.67 684.67 C 580.10 661.98 582.03 636.82 586.67 615.67 C 591.31 594.52 595.75 574.35 602.22 554.22 C 608.69 534.10 614.30 516.96 621.07 497.07 C 627.85 477.18 633.13 459.35 639.01 439.01 C 644.89 418.67 648.28 396.78 651.00 375.00 C 653.73 353.23 655.23 325.32 653.00 303.00 C 650.77 280.68 647.72 260.91 639.00 241.00
C 666.29 422.35 505.44 550.19 482.00 719.00
M 372.00 141.00 
C 367.87 168.99 329.88 178.92 308.00 165.00
C 316.71 138.69 349.89 143.83 372.00 141.00
M 260.00 196.00 
C 228.48 256.14 160.86 286.16 99.00 301.00
C 99.62 318.97 96.20 341.26 79.00 350.00
C 88.20 335.92 92.15 324.73 90.01 306.99 C 87.87 289.26 110.47 288.95 123.08 284.08 C 135.68 279.20 150.19 273.94 162.23 267.23 C 174.27 260.52 187.23 255.13 198.25 247.25 C 209.27 239.36 220.50 232.61 230.75 223.75 C 241.00 214.88 249.98 205.12 260.00 196.00
M 378.00 327.00 
C 351.18 385.60 267.07 384.15 218.00 359.00
C 270.97 373.76 341.87 376.17 378.00 327.00
M 347.00 446.00 
C 245.17 523.95 175.61 640.79 171.00 768.00
C 155.03 639.37 229.48 504.00 347.00 446.00 Z"/>
</g>
<g fill="None" fill-opacity="0.0" stroke="#F8F9FB" stroke-opacity="0.02" stroke-width="0.3"><path d="
M 372.00 141.00 
C 349.89 143.83 316.71 138.69 308.00 165.00
C 329.88 178.92 367.87 168.99 372.00 141.00 Z"/>
</g>
<g fill="None" fill-opacity="0.0" stroke="#F8F9FB" stroke-opacity="0.03" stroke-width="0.3"><path d="
M 260.00 196.00 
C 249.98 205.12 241.00 214.88 230.75 223.75 C 220.50 232.61 209.27 239.36 198.25 247.25 C 187.23 255.13 174.27 260.52 162.23 267.23 C 150.19 273.94 135.68 279.20 123.08 284.08 C 110.47 288.95 87.87 289.26 90.01 306.99 C 92.15 324.73 88.20 335.92 79.00 350.00
C 96.20 341.26 99.62 318.97 99.00 301.00
C 160.86 286.16 228.48 256.14 260.00 196.00 Z"/>
</g>
<g fill="None" fill-opacity="0.0" stroke="#F8F9FB" stroke-opacity="0.05" stroke-width="0.3"><path d="
M 378.00 327.00 
C 341.87 376.17 270.97 373.76 218.00 359.00
C 267.07 384.15 351.18 385.60 378.00 327.00 Z"/>
</g>
<g fill="None" fill-opacity="0.0" stroke="#F8F9FB" stroke-opacity="0.01" stroke-width="0.3"><path d="
M 347.00 446.00 
C 229.48 504.00 155.03 639.37 171.00 768.00
C 175.61 640.79 245.17 523.95 347.00 446.00 Z"/>
</g>
<g fill="#F8F9FB" fill-opacity="0.00" stroke="None">
<path d="
M 0.00 1037.00 
L 759.00 1037.00
L 759.00 0.00
L 0.00 0.00
L 0.00 1037.00
M 482.00 719.00 
C 505.44 550.19 666.29 422.35 639.00 241.00
C 647.72 260.91 650.77 280.68 653.00 303.00 C 655.23 325.32 653.73 353.23 651.00 375.00 C 648.28 396.78 644.89 418.67 639.01 439.01 C 633.13 459.35 627.85 477.18 621.07 497.07 C 614.30 516.96 608.69 534.10 602.22 554.22 C 595.75 574.35 591.31 594.52 586.67 615.67 C 582.03 636.82 580.10 661.98 579.67 684.67 C 579.24 707.36 580.54 731.48 585.99 753.01 C 591.45 774.54 598.69 787.76 605.98 809.03 C 613.26 830.29 642.10 817.83 654.75 834.25 C 667.41 850.66 659.55 878.85 635.98 879.98 C 612.40 881.11 584.45 879.16 560.33 880.33 C 536.21 881.50 510.47 881.68 486.00 882.00 C 461.53 882.32 435.17 882.18 411.00 883.00 C 386.83 883.82 363.75 883.96 339.00 885.00 C 314.25 886.04 287.49 883.53 263.00 886.00
C 299.52 888.57 338.85 889.55 377.00 890.00 C 415.15 890.45 456.99 892.71 495.00 892.00 C 533.01 891.29 578.51 893.41 615.00 892.00 C 651.49 890.59 677.26 901.55 699.92 927.08 C 722.58 952.61 731.52 976.55 740.00 1008.00
C 497.92 1009.67 254.05 1009.66 12.00 1008.00
C 26.60 955.25 56.04 895.03 113.00 877.00
C 92.20 860.01 101.30 822.38 131.22 823.22 C 161.14 824.06 192.15 823.21 223.00 822.00 C 253.85 820.79 287.90 823.53 319.00 822.00 C 350.10 820.47 383.33 821.90 414.00 820.00
C 400.08 818.15 385.30 819.31 371.00 819.00 C 356.70 818.69 342.94 818.02 328.78 817.22 C 314.62 816.42 300.20 816.73 286.00 816.00 C 271.80 815.27 257.55 814.68 243.00 815.00 C 228.45 815.32 215.78 814.09 201.00 815.00 C 186.22 815.91 172.73 813.85 158.00 814.00 C 143.27 814.15 145.65 797.42 143.00 785.00 C 140.35 772.58 139.49 758.29 139.00 745.00 C 138.51 731.71 139.79 715.87 141.00 703.00 C 142.21 690.12 143.89 676.27 146.00 664.00 C 148.10 651.72 151.92 640.45 154.93 628.93 C 157.93 617.40 162.19 605.99 166.31 595.31 C 170.42 584.62 175.32 575.17 180.31 565.31 C 185.29 555.44 191.59 547.33 197.25 538.25 C 202.92 529.18 209.85 521.79 216.75 513.75 C 223.65 505.71 230.58 498.69 238.25 491.25 C 245.92 483.81 253.68 477.31 262.25 471.25 C 270.81 465.19 279.94 459.52 288.75 453.75 C 297.55 447.97 307.05 442.75 315.70 436.70 C 324.35 430.65 332.91 424.75 341.23 418.23 C 349.55 411.71 355.93 404.24 363.75 396.75 C 371.57 389.26 377.45 381.17 382.92 371.92 C 388.40 362.68 394.11 351.49 397.00 341.00
C 390.47 349.76 385.86 358.30 377.25 366.25 C 368.63 374.20 362.06 380.15 350.92 384.92 C 339.79 389.69 325.20 393.00 312.00 392.00 C 298.80 391.00 283.64 391.07 271.00 388.00 C 258.36 384.93 245.61 383.48 233.33 379.67 C 221.05 375.86 210.91 374.48 198.98 369.02 C 187.04 363.57 180.71 374.40 170.92 380.92 C 161.12 387.43 152.00 392.52 140.78 395.78 C 129.56 399.04 110.71 399.14 100.32 394.68 C 89.93 390.22 80.17 384.89 72.77 377.23 C 65.37 369.57 51.52 362.00 57.92 351.92 C 64.33 341.85 66.39 329.82 69.33 318.33 C 72.27 306.84 67.94 285.48 81.01 284.01 C 94.07 282.54 103.01 276.36 114.23 272.23 C 125.45 268.10 134.93 263.45 145.08 258.08 C 155.22 252.70 164.62 247.18 173.75 240.75 C 182.88 234.31 190.81 228.11 199.70 221.70 C 208.59 215.28 215.79 207.54 223.75 199.75 C 231.72 191.96 238.05 185.06 246.25 177.25 C 254.45 169.44 260.99 161.04 266.32 151.32 C 271.66 141.61 279.55 135.93 287.70 127.70 C 295.85 119.46 309.82 116.96 320.67 114.67 C 331.52 112.38 348.11 111.09 357.68 106.68 C 367.24 102.26 385.92 104.14 388.92 91.92 C 391.92 79.71 377.85 69.19 380.00 56.00 C 382.16 42.81 377.42 25.55 383.00 13.00
C 390.30 18.49 397.63 25.05 403.75 32.25 C 409.87 39.45 415.41 46.54 422.75 53.25 C 430.09 59.96 435.93 67.55 444.70 72.30 C 453.47 77.06 464.16 80.15 473.68 83.32 C 483.20 86.49 492.79 91.21 502.08 94.92 C 511.37 98.64 520.33 104.09 528.70 109.30 C 537.06 114.52 544.63 119.59 552.23 125.77 C 559.83 131.95 565.66 138.15 572.75 145.25 C 579.84 152.35 584.84 160.09 590.77 168.23 C 596.70 176.37 600.94 184.15 605.31 193.70 C 609.67 203.24 613.69 211.82 616.33 222.67 C 618.96 233.53 620.88 246.17 621.98 258.02 C 623.07 269.88 621.31 284.58 620.01 296.01 C 618.70 307.44 616.87 319.20 614.01 330.01 C 611.15 340.82 608.38 351.83 605.22 362.22 C 602.07 372.62 598.29 382.14 595.03 392.03 C 591.76 401.91 587.02 410.61 583.23 420.23 C 579.44 429.85 575.08 439.41 570.69 448.70 C 566.31 457.98 562.45 466.93 558.08 476.08 C 553.70 485.22 548.98 493.34 544.23 502.23 C 539.48 511.12 534.66 520.06 530.08 529.08 C 525.50 538.10 520.33 545.81 516.23 555.23 C 512.13 564.65 508.02 573.37 504.22 583.22 C 500.43 593.08 497.19 603.68 494.08 614.08 C 490.97 624.47 488.56 635.27 486.22 646.22 C 483.88 657.18 482.87 670.52 482.00 682.00 C 481.13 693.48 477.66 709.46 482.00 719.00 Z"/>
</g>
<g fill="#F8F9FB" fill-opacity="1.00" stroke="None">
<path d="
M 482.00 719.00 
C 477.66 709.46 481.13 693.48 482.00 682.00 C 482.87 670.52 483.88 657.18 486.22 646.22 C 488.56 635.27 490.97 624.47 494.08 614.08 C 497.19 603.68 500.43 593.08 504.22 583.22 C 508.02 573.37 512.13 564.65 516.23 555.23 C 520.33 545.81 525.50 538.10 530.08 529.08 C 534.66 520.06 539.48 511.12 544.23 502.23 C 548.98 493.34 553.70 485.22 558.08 476.08 C 562.45 466.93 566.31 457.98 570.69 448.70 C 575.08 439.41 579.44 429.85 583.23 420.23 C 587.02 410.61 591.76 401.91 595.03 392.03 C 598.29 382.14 602.07 372.62 605.22 362.22 C 608.38 351.83 611.15 340.82 614.01 330.01 C 616.87 319.20 618.70 307.44 620.01 296.01 C 621.31 284.58 623.07 269.88 621.98 258.02 C 620.88 246.17 618.96 233.53 616.33 222.67 C 613.69 211.82 609.67 203.24 605.31 193.70 C 600.94 184.15 596.70 176.37 590.77 168.23 C 584.84 160.09 579.84 152.35 572.75 145.25 C 565.66 138.15 559.83 131.95 552.23 125.77 C 544.63 119.59 537.06 114.52 528.70 109.30 C 520.33 104.09 511.37 98.64 502.08 94.92 C 492.79 91.21 483.20 86.49 473.68 83.32 C 464.16 80.15 453.47 77.06 444.70 72.30 C 435.93 67.55 430.09 59.96 422.75 53.25 C 415.41 46.54 409.87 39.45 403.75 32.25 C 397.63 25.05 390.30 18.49 383.00 13.00
C 377.42 25.55 382.16 42.81 380.00 56.00 C 377.85 69.19 391.92 79.71 388.92 91.92 C 385.92 104.14 367.24 102.26 357.68 106.68 C 348.11 111.09 331.52 112.38 320.67 114.67 C 309.82 116.96 295.85 119.46 287.70 127.70 C 279.55 135.93 271.66 141.61 266.32 151.32 C 260.99 161.04 254.45 169.44 246.25 177.25 C 238.05 185.06 231.72 191.96 223.75 199.75 C 215.79 207.54 208.59 215.28 199.70 221.70 C 190.81 228.11 182.88 234.31 173.75 240.75 C 164.62 247.18 155.22 252.70 145.08 258.08 C 134.93 263.45 125.45 268.10 114.23 272.23 C 103.01 276.36 94.07 282.54 81.01 284.01 C 67.94 285.48 72.27 306.84 69.33 318.33 C 66.39 329.82 64.33 341.85 57.92 351.92 C 51.52 362.00 65.37 369.57 72.77 377.23 C 80.17 384.89 89.93 390.22 100.32 394.68 C 110.71 399.14 129.56 399.04 140.78 395.78 C 152.00 392.52 161.12 387.43 170.92 380.92 C 180.71 374.40 187.04 363.57 198.98 369.02 C 210.91 374.48 221.05 375.86 233.33 379.67 C 245.61 383.48 258.36 384.93 271.00 388.00 C 283.64 391.07 298.80 391.00 312.00 392.00 C 325.20 393.00 339.79 389.69 350.92 384.92 C 362.06 380.15 368.63 374.20 377.25 366.25 C 385.86 358.30 390.47 349.76 397.00 341.00
C 394.11 351.49 388.40 362.68 382.92 371.92 C 377.45 381.17 371.57 389.26 363.75 396.75 C 355.93 404.24 349.55 411.71 341.23 418.23 C 332.91 424.75 324.35 430.65 315.70 436.70 C 307.05 442.75 297.55 447.97 288.75 453.75 C 279.94 459.52 270.81 465.19 262.25 471.25 C 253.68 477.31 245.92 483.81 238.25 491.25 C 230.58 498.69 223.65 505.71 216.75 513.75 C 209.85 521.79 202.92 529.18 197.25 538.25 C 191.59 547.33 185.29 555.44 180.31 565.31 C 175.32 575.17 170.42 584.62 166.31 595.31 C 162.19 605.99 157.93 617.40 154.93 628.93 C 151.92 640.45 148.10 651.72 146.00 664.00 C 143.89 676.27 142.21 690.12 141.00 703.00 C 139.79 715.87 138.51 731.71 139.00 745.00 C 139.49 758.29 140.35 772.58 143.00 785.00 C 145.65 797.42 143.27 814.15 158.00 814.00 C 172.73 813.85 186.22 815.91 201.00 815.00 C 215.78 814.09 228.45 815.32 243.00 815.00 C 257.55 814.68 271.80 815.27 286.00 816.00 C 300.20 816.73 314.62 816.42 328.78 817.22 C 342.94 818.02 356.70 818.69 371.00 819.00 C 385.30 819.31 400.08 818.15 414.00 820.00
C 383.33 821.90 350.10 820.47 319.00 822.00 C 287.90 823.53 253.85 820.79 223.00 822.00 C 192.15 823.21 161.14 824.06 131.22 823.22 C 101.30 822.38 92.20 860.01 113.00 877.00
C 56.04 895.03 26.60 955.25 12.00 1008.00
C 254.05 1009.66 497.92 1009.67 740.00 1008.00
C 731.52 976.55 722.58 952.61 699.92 927.08 C 677.26 901.55 651.49 890.59 615.00 892.00 C 578.51 893.41 533.01 891.29 495.00 892.00 C 456.99 892.71 415.15 890.45 377.00 890.00 C 338.85 889.55 299.52 888.57 263.00 886.00
C 287.49 883.53 314.25 886.04 339.00 885.00 C 363.75 883.96 386.83 883.82 411.00 883.00 C 435.17 882.18 461.53 882.32 486.00 882.00 C 510.47 881.68 536.21 881.50 560.33 880.33 C 584.45 879.16 612.40 881.11 635.98 879.98 C 659.55 878.85 667.41 850.66 654.75 834.25 C 642.10 817.83 613.26 830.29 605.98 809.03 C 598.69 787.76 591.45 774.54 585.99 753.01 C 580.54 731.48 579.24 707.36 579.67 684.67 C 580.10 661.98 582.03 636.82 586.67 615.67 C 591.31 594.52 595.75 574.35 602.22 554.22 C 608.69 534.10 614.30 516.96 621.07 497.07 C 627.85 477.18 633.13 459.35 639.01 439.01 C 644.89 418.67 648.28 396.78 651.00 375.00 C 653.73 353.23 655.23 325.32 653.00 303.00 C 650.77 280.68 647.72 260.91 639.00 241.00
C 666.29 422.35 505.44 550.19 482.00 719.00
M 372.00 141.00 
C 367.87 168.99 329.88 178.92 308.00 165.00
C 316.71 138.69 349.89 143.83 372.00 141.00
M 260.00 196.00 
C 228.48 256.14 160.86 286.16 99.00 301.00
C 99.62 318.97 96.20 341.26 79.00 350.00
C 88.20 335.92 92.15 324.73 90.01 306.99 C 87.87 289.26 110.47 288.95 123.08 284.08 C 135.68 279.20 150.19 273.94 162.23 267.23 C 174.27 260.52 187.23 255.13 198.25 247.25 C 209.27 239.36 220.50 232.61 230.75 223.75 C 241.00 214.88 249.98 205.12 260.00 196.00
M 378.00 327.00 
C 351.18 385.60 267.07 384.15 218.00 359.00
C 270.97 373.76 341.87 376.17 378.00 327.00
M 347.00 446.00 
C 245.17 523.95 175.61 640.79 171.00 768.00
C 155.03 639.37 229.48 504.00 347.00 446.00 Z"/>
</g>
<g fill="#F8F9FB" fill-opacity="0.02" stroke="None">
<path d="
M 372.00 141.00 
C 349.89 143.83 316.71 138.69 308.00 165.00
C 329.88 178.92 367.87 168.99 372.00 141.00 Z"/>
</g>
<g fill="#F8F9FB" fill-opacity="0.03" stroke="None">
<path d="
M 260.00 196.00 
C 249.98 205.12 241.00 214.88 230.75 223.75 C 220.50 232.61 209.27 239.36 198.25 247.25 C 187.23 255.13 174.27 260.52 162.23 267.23 C 150.19 273.94 135.68 279.20 123.08 284.08 C 110.47 288.95 87.87 289.26 90.01 306.99 C 92.15 324.73 88.20 335.92 79.00 350.00
C 96.20 341.26 99.62 318.97 99.00 301.00
C 160.86 286.16 228.48 256.14 260.00 196.00 Z"/>
</g>
<g fill="#F8F9FB" fill-opacity="0.05" stroke="None">
<path d="
M 378.00 327.00 
C 341.87 376.17 270.97 373.76 218.00 359.00
C 267.07 384.15 351.18 385.60 378.00 327.00 Z"/>
</g>
<g fill="#F8F9FB" fill-opacity="0.01" stroke="None">
<path d="
M 347.00 446.00 
C 229.48 504.00 155.03 639.37 171.00 768.00
C 175.61 640.79 245.17 523.95 347.00 446.00 Z"/>
</g>
</svg>