<?xml version="1.0" encoding="iso-8859-1"?>
<svg height="800px" width="800px" version="1.1" id="Layer_1" xmlns="http://www.w3.org/2000/svg" xmlns:xlink="http://www.w3.org/1999/xlink" 
	 viewBox="0 0 511.999 511.999" xml:space="preserve">
<path style="fill:#CECED1;" d="M114.369,286.984c-4.402-4.402-11.539-4.402-15.94,0l-63.684,63.684
	C6.335,379.077-5.763,419.937,2.601,459.235l6.877,32.314c1.171,5.502,5.47,9.801,10.972,10.972l32.314,6.877
	c39.298,8.364,80.158-3.734,108.567-32.144l63.684-63.684c4.402-4.402,4.402-11.539,0-15.94L114.369,286.984z"/>
<path style="fill:#AEACB3;" d="M225.015,413.569c4.402-4.402,4.402-11.539,0-15.94l-54.247-54.248l-156.29,156.29
	c1.708,1.376,3.737,2.375,5.97,2.85l32.314,6.877c39.298,8.364,80.158-3.734,108.567-32.144L225.015,413.569z"/>
<path style="fill:#533F29;" d="M121.667,414.268c-6.126,0-12.252-2.337-16.927-7.011c-9.348-9.349-9.348-24.505,0-33.852
	l258.128-258.127c9.349-9.349,24.506-9.349,33.853,0c9.348,9.349,9.348,24.505,0,33.852L138.594,407.257
	C133.92,411.931,127.793,414.268,121.667,414.268z"/>
<path style="fill:#A9825A;" d="M423.801,162.368c-19.002,0-38.004-7.233-52.471-21.699c-28.933-28.933-28.933-76.01,0-104.943
	l30.468-30.468c7.011-7.01,18.379-7.01,25.389,0l79.554,79.554c7.011,7.011,7.011,18.378,0,25.389l-30.468,30.468
	C461.807,155.134,442.804,162.368,423.801,162.368z M414.493,43.341L396.72,61.115c-14.933,14.933-14.933,39.231,0,54.164
	c7.234,7.234,16.852,11.218,27.083,11.218c10.23,0,19.848-3.984,27.082-11.218l17.774-17.774L414.493,43.341z"/>
<path style="fill:#493623;" d="M121.667,414.268c6.126,0,12.252-2.337,16.927-7.011L396.721,149.13
	c9.021-9.022,9.308-23.437,0.918-32.837L105.757,408.176C110.287,412.219,115.969,414.268,121.667,414.268z"/>
<path style="fill:#7E6142;" d="M423.801,162.368c19.003,0,38.005-7.233,52.472-21.699l30.468-30.468
	c7.011-7.011,7.011-18.378,0-25.389l-38.81-38.81l-25.389,25.389l26.115,26.115l-17.774,17.774
	c-7.234,7.234-16.852,11.218-27.082,11.218c-9.774,0-18.981-3.643-26.092-10.274l-25.388,25.388
	C386.661,155.435,405.226,162.368,423.801,162.368z"/>
</svg>